<svg width="32" height="33" viewBox="0 0 32 33" fill="none" xmlns="http://www.w3.org/2000/svg">
<g clip-path="url(#clip0_2_263)">
<g filter="url(#filter0_d_2_263)">
<circle cx="16" cy="16.5" r="16" fill="url(#paint0_linear_2_263)"/>
</g>
<path d="M16.0001 30.486C12.9921 30.486 10.2401 29.526 7.96808 27.928C8.00008 27.672 8.06408 27.418 8.12808 27.162C8.31876 26.4682 8.59841 25.802 8.96008 25.18C9.31208 24.572 9.72808 24.028 10.2401 23.548C10.7201 23.068 11.2961 22.622 11.8721 22.27C12.4801 21.918 13.1201 21.662 13.8241 21.47C14.5336 21.2788 15.2653 21.1826 16.0001 21.184C18.1814 21.1686 20.2825 22.0053 21.8561 23.516C22.5921 24.252 23.1681 25.116 23.5841 26.106C23.8081 26.682 23.9681 27.29 24.0641 27.928C21.7024 29.5883 18.8869 30.4815 16.0001 30.486ZM11.1041 15.686C10.8221 15.0405 10.6803 14.3424 10.6881 13.638C10.6881 12.936 10.8161 12.232 11.1041 11.592C11.3921 10.952 11.7761 10.378 12.2561 9.89803C12.7361 9.41803 13.3121 9.03603 13.9521 8.74803C14.5921 8.46003 15.2961 8.33203 16.0001 8.33203C16.7361 8.33203 17.4081 8.46003 18.0481 8.74803C18.6881 9.03603 19.2641 9.42003 19.7441 9.89803C20.2241 10.378 20.6081 10.954 20.8961 11.592C21.1841 12.232 21.3121 12.936 21.3121 13.638C21.3121 14.374 21.1841 15.046 20.8961 15.684C20.6181 16.3146 20.2278 16.8893 19.7441 17.38C19.2531 17.863 18.6785 18.2527 18.0481 18.53C16.7257 19.0735 15.2424 19.0735 13.9201 18.53C13.2897 18.2527 12.715 17.863 12.2241 17.38C11.7397 16.8964 11.3587 16.3214 11.1041 15.686Z" fill="white"/>
</g>
<defs>
<filter id="filter0_d_2_263" x="-20" y="-16.5" width="72" height="72" filterUnits="userSpaceOnUse" color-interpolation-filters="sRGB">
<feFlood flood-opacity="0" result="BackgroundImageFix"/>
<feColorMatrix in="SourceAlpha" type="matrix" values="0 0 0 0 0 0 0 0 0 0 0 0 0 0 0 0 0 0 127 0" result="hardAlpha"/>
<feOffset dy="3"/>
<feGaussianBlur stdDeviation="10"/>
<feComposite in2="hardAlpha" operator="out"/>
<feColorMatrix type="matrix" values="0 0 0 0 0.629931 0 0 0 0 0.718525 0 0 0 0 0.804167 0 0 0 0.2 0"/>
<feBlend mode="normal" in2="BackgroundImageFix" result="effect1_dropShadow_2_263"/>
<feBlend mode="normal" in="SourceGraphic" in2="effect1_dropShadow_2_263" result="shape"/>
</filter>
<linearGradient id="paint0_linear_2_263" x1="0" y1="16.5" x2="30.4424" y2="9.6139" gradientUnits="userSpaceOnUse">
<stop stop-color="#0E7EE4"/>
<stop offset="1" stop-color="#14B8B4"/>
</linearGradient>
<clipPath id="clip0_2_263">
<rect width="32" height="32" fill="white" transform="translate(0 0.5)"/>
</clipPath>
</defs>
</svg>
