<svg width="24" height="24" viewBox="0 0 24 24" fill="none" xmlns="http://www.w3.org/2000/svg">
<rect x="0.5" y="0.5" width="23" height="23" rx="1.5" fill="#0E7EE4" fill-opacity="0.2"/>
<rect x="0.5" y="0.5" width="23" height="23" rx="1.5" stroke="#0E7EE4"/>
<path d="M7.33333 8.66667C6.97971 8.66667 6.64057 8.80715 6.39052 9.0572C6.14048 9.30724 6 9.64638 6 10V14C6 14.3536 6.14048 14.6928 6.39052 14.9428C6.64057 15.1929 6.97971 15.3333 7.33333 15.3333H9.33333V14H7.33333V10H9.33333V8.66667H7.33333ZM11.3333 8.66667C10.9797 8.66667 10.6406 8.80715 10.3905 9.0572C10.1405 9.30724 10 9.64638 10 10V14C10 14.3536 10.1405 14.6928 10.3905 14.9428C10.6406 15.1929 10.9797 15.3333 11.3333 15.3333H12.6667C13.0203 15.3333 13.3594 15.1929 13.6095 14.9428C13.8595 14.6928 14 14.3536 14 14V10C14 9.64638 13.8595 9.30724 13.6095 9.0572C13.3594 8.80715 13.0203 8.66667 12.6667 8.66667H11.3333ZM11.3333 10H12.6667V14H11.3333V10ZM14.6667 11V12H16.6667V13H15.6667C15.4014 13 15.1471 13.1054 14.9596 13.2929C14.772 13.4804 14.6667 13.7348 14.6667 14V16H17.6667V15H15.6667V14H16.6667C16.9319 14 17.1862 13.8946 17.3738 13.7071C17.5613 13.5196 17.6667 13.2652 17.6667 13V12C17.6667 11.7348 17.5613 11.4804 17.3738 11.2929C17.1862 11.1054 16.9319 11 16.6667 11H14.6667Z" fill="#0E7EE4"/>
</svg>
