<svg width="24" height="24" viewBox="0 0 24 24" fill="none" xmlns="http://www.w3.org/2000/svg">
<rect x="0.5" y="0.5" width="23" height="23" rx="1.5" fill="#14B8B4" fill-opacity="0.2"/>
<rect x="0.5" y="0.5" width="23" height="23" rx="1.5" stroke="#14B8B4"/>
<path d="M13.4267 12H13.3867C13.9267 12 14.24 11.3933 13.9333 10.9533L10.5467 6.11334C10.4852 6.02532 10.4034 5.95344 10.3083 5.9038C10.2131 5.85417 10.1073 5.82825 10 5.82825C9.89266 5.82825 9.78691 5.85417 9.69173 5.9038C9.59656 5.95344 9.51477 6.02532 9.45334 6.11334L6.06667 10.9533C5.76 11.3933 6.07334 12 6.61334 12H6.57334L4.66 14.9733C4.37334 15.4133 4.69334 16 5.22 16H8.66667V17.3333C8.66667 18.0667 9.26667 18.6667 10 18.6667C10.7333 18.6667 11.3333 18.0667 11.3333 17.3333V16H14.78C15.3067 16 15.6267 15.4133 15.34 14.9733L13.4267 12Z" fill="#14B8B4"/>
<path d="M19.34 14.9733L17.4267 12H17.3867C17.9267 12 18.24 11.3933 17.9333 10.9533L14.5467 6.11334C14.4852 6.02532 14.4035 5.95344 14.3083 5.9038C14.2131 5.85417 14.1074 5.82825 14 5.82825C13.8927 5.82825 13.7869 5.85417 13.6917 5.9038C13.5966 5.95344 13.5148 6.02532 13.4533 6.11334L12.4067 7.60667L14.48 10.5667C14.6542 10.8153 14.7386 11.1158 14.7192 11.4187C14.6998 11.7217 14.5778 12.009 14.3733 12.2333L15.9 14.6133C16.1667 15.0267 16.18 15.5467 15.9467 15.9733C15.94 15.9867 15.9333 15.9933 15.9267 16H18.78C19.3067 16 19.6267 15.4133 19.34 14.9733ZM12.6667 17.3333C12.6667 18.0667 13.2667 18.6667 14 18.6667C14.7333 18.6667 15.3333 18.0667 15.3333 17.3333V16.6667H12.6667V17.3333Z" fill="#14B8B4"/>
</svg>
