<svg width="24" height="24" viewBox="0 0 24 24" fill="none" xmlns="http://www.w3.org/2000/svg">
<rect x="0.5" y="0.5" width="23" height="23" rx="1.5" fill="#FF7A00" fill-opacity="0.2"/>
<rect x="0.5" y="0.5" width="23" height="23" rx="1.5" stroke="#FF7A00"/>
<path d="M17.9656 6.50438C17.9585 6.38205 17.9067 6.26661 17.82 6.17997C17.7334 6.09333 17.618 6.04152 17.4956 6.03438C12.7375 5.755 8.92626 7.1875 7.30126 9.875C6.73799 10.7943 6.46042 11.8602 6.50376 12.9375C6.53205 13.6264 6.67221 14.3061 6.91876 14.95C6.93325 14.9896 6.95753 15.0249 6.98934 15.0527C7.02115 15.0804 7.05946 15.0996 7.1007 15.1085C7.14194 15.1174 7.18476 15.1158 7.22518 15.1037C7.26561 15.0916 7.30231 15.0695 7.33188 15.0394L12.6444 9.64563C12.6908 9.59917 12.746 9.56232 12.8067 9.53718C12.8674 9.51204 12.9324 9.4991 12.9981 9.4991C13.0638 9.4991 13.1289 9.51204 13.1896 9.53718C13.2503 9.56232 13.3054 9.59917 13.3519 9.64563C13.3983 9.69208 13.4352 9.74723 13.4603 9.80793C13.4855 9.86862 13.4984 9.93368 13.4984 9.99937C13.4984 10.0651 13.4855 10.1301 13.4603 10.1908C13.4352 10.2515 13.3983 10.3067 13.3519 10.3531L7.54626 16.2463L6.65938 17.1331C6.56715 17.2229 6.51209 17.3441 6.50514 17.4727C6.49819 17.6012 6.53987 17.7277 6.62188 17.8269C6.6668 17.8789 6.72196 17.9211 6.78391 17.9508C6.84587 17.9806 6.91329 17.9972 6.98197 17.9998C7.05065 18.0023 7.11911 17.9906 7.18308 17.9655C7.24705 17.9404 7.30515 17.9023 7.35376 17.8538L8.40313 16.8044C9.28688 17.2319 10.1788 17.465 11.0631 17.4963C11.1327 17.4987 11.2021 17.5 11.2713 17.5C12.2784 17.5026 13.2664 17.2252 14.125 16.6987C16.8125 15.0737 18.2456 11.2631 17.9656 6.50438Z" fill="#FF7A00"/>
</svg>
