<svg width="24" height="24" viewBox="0 0 24 24" fill="none" xmlns="http://www.w3.org/2000/svg">
<g clip-path="url(#clip0_2_1362)">
<path d="M19.5 7V23H11.5V7H13V4.5H14V3.5H15V0.5H16V3.5H17V4.5H18V7H19.5Z" fill="#0E7EE4"/>
<path fill-rule="evenodd" clip-rule="evenodd" d="M14.75 0.5C14.75 0.361929 14.8619 0.25 15 0.25H16C16.1381 0.25 16.25 0.361929 16.25 0.5V3.25H17C17.1381 3.25 17.25 3.36193 17.25 3.5V4.25H18C18.1381 4.25 18.25 4.36193 18.25 4.5V6.75H19.5C19.6381 6.75 19.75 6.86193 19.75 7V23C19.75 23.1381 19.6381 23.25 19.5 23.25H5.5V22.75H11.25V7C11.25 6.86193 11.3619 6.75 11.5 6.75H12.75V4.5C12.75 4.36193 12.8619 4.25 13 4.25H13.75V3.5C13.75 3.36193 13.8619 3.25 14 3.25H14.75V0.5ZM15.25 3.25H15.75V0.75H15.25V3.25ZM14.25 4.25H16.75V3.75H14.25V4.25ZM13.25 6.75H17.75V4.75H13.25V6.75ZM11.75 22.75H19.25V7.25H11.75V22.75Z" fill="#0E7EE4"/>
<path fill-rule="evenodd" clip-rule="evenodd" d="M12.0106 11.0466C12.16 11.1492 12.2492 11.3188 12.2492 11.5V22.45H18.6492V21.5H19.7492V23C19.7492 23.3038 19.503 23.55 19.1992 23.55H5.19923C4.89547 23.55 4.64923 23.3038 4.64923 23V14C4.64923 13.7724 4.78939 13.5684 5.00179 13.4867L11.5018 10.9867C11.6709 10.9216 11.8612 10.944 12.0106 11.0466ZM11.1492 22.45V12.3008L5.74923 14.3777V22.45H11.1492Z" fill="#0E7EE4"/>
<path d="M14.8998 5H13.9998C13.8893 5 13.7998 5.08954 13.7998 5.2V6.1C13.7998 6.21046 13.8893 6.3 13.9998 6.3H14.8998C15.0103 6.3 15.0998 6.21046 15.0998 6.1V5.2C15.0998 5.08954 15.0103 5 14.8998 5Z" fill="white"/>
<path d="M17.1 5H16.2C16.0895 5 16 5.08954 16 5.2V6.1C16 6.21046 16.0895 6.3 16.2 6.3H17.1C17.2105 6.3 17.3 6.21046 17.3 6.1V5.2C17.3 5.08954 17.2105 5 17.1 5Z" fill="white"/>
<path d="M12.7 8.5H13.6C13.7105 8.5 13.8 8.58954 13.8 8.7V9.6C13.8 9.71046 13.7105 9.8 13.6 9.8H12.7C12.5895 9.8 12.5 9.71046 12.5 9.6V8.7C12.5 8.58954 12.5895 8.5 12.7 8.5Z" fill="white"/>
<path d="M16.1 8.5H15.2C15.0895 8.5 15 8.58954 15 8.7V9.6C15 9.71046 15.0895 9.8 15.2 9.8H16.1C16.2105 9.8 16.3 9.71046 16.3 9.6V8.7C16.3 8.58954 16.2105 8.5 16.1 8.5Z" fill="white"/>
<path d="M17.7 8.5H18.6C18.7105 8.5 18.8 8.58954 18.8 8.7V9.6C18.8 9.71046 18.7105 9.8 18.6 9.8H17.7C17.5895 9.8 17.5 9.71046 17.5 9.6V8.7C17.5 8.58954 17.5895 8.5 17.7 8.5Z" fill="white"/>
<path d="M13.6 11.5H12.7C12.5895 11.5 12.5 11.5895 12.5 11.7V12.6C12.5 12.7105 12.5895 12.8 12.7 12.8H13.6C13.7105 12.8 13.8 12.7105 13.8 12.6V11.7C13.8 11.5895 13.7105 11.5 13.6 11.5Z" fill="white"/>
<path d="M15.2 11.5H16.1C16.2105 11.5 16.3 11.5895 16.3 11.7V12.6C16.3 12.7105 16.2105 12.8 16.1 12.8H15.2C15.0895 12.8 15 12.7105 15 12.6V11.7C15 11.5895 15.0895 11.5 15.2 11.5Z" fill="white"/>
<path d="M18.6 11.5H17.7C17.5895 11.5 17.5 11.5895 17.5 11.7V12.6C17.5 12.7105 17.5895 12.8 17.7 12.8H18.6C18.7105 12.8 18.8 12.7105 18.8 12.6V11.7C18.8 11.5895 18.7105 11.5 18.6 11.5Z" fill="white"/>
<path d="M12.7 14.5H13.6C13.7105 14.5 13.8 14.5895 13.8 14.7V15.6C13.8 15.7105 13.7105 15.8 13.6 15.8H12.7C12.5895 15.8 12.5 15.7105 12.5 15.6V14.7C12.5 14.5895 12.5895 14.5 12.7 14.5Z" fill="white"/>
<path d="M16.1 14.5H15.2C15.0895 14.5 15 14.5895 15 14.7V15.6C15 15.7105 15.0895 15.8 15.2 15.8H16.1C16.2105 15.8 16.3 15.7105 16.3 15.6V14.7C16.3 14.5895 16.2105 14.5 16.1 14.5Z" fill="white"/>
<path d="M17.7 14.5H18.6C18.7105 14.5 18.8 14.5895 18.8 14.7V15.6C18.8 15.7105 18.7105 15.8 18.6 15.8H17.7C17.5895 15.8 17.5 15.7105 17.5 15.6V14.7C17.5 14.5895 17.5895 14.5 17.7 14.5Z" fill="white"/>
<path d="M13.6 17.5H12.7C12.5895 17.5 12.5 17.5895 12.5 17.7V18.6C12.5 18.7105 12.5895 18.8 12.7 18.8H13.6C13.7105 18.8 13.8 18.7105 13.8 18.6V17.7C13.8 17.5895 13.7105 17.5 13.6 17.5Z" fill="white"/>
<path d="M15.2 17.5H16.1C16.2105 17.5 16.3 17.5895 16.3 17.7V18.6C16.3 18.7105 16.2105 18.8 16.1 18.8H15.2C15.0895 18.8 15 18.7105 15 18.6V17.7C15 17.5895 15.0895 17.5 15.2 17.5Z" fill="white"/>
<path d="M18.6 17.5H17.7C17.5895 17.5 17.5 17.5895 17.5 17.7V18.6C17.5 18.7105 17.5895 18.8 17.7 18.8H18.6C18.7105 18.8 18.8 18.7105 18.8 18.6V17.7C18.8 17.5895 18.7105 17.5 18.6 17.5Z" fill="white"/>
<path d="M6.7 15.5H7.6C7.71046 15.5 7.8 15.5895 7.8 15.7V16.6C7.8 16.7105 7.71046 16.8 7.6 16.8H6.7C6.58954 16.8 6.5 16.7105 6.5 16.6V15.7C6.5 15.5895 6.58954 15.5 6.7 15.5Z" fill="#0E7EE4"/>
<path d="M8.7 15.5H9.6C9.71046 15.5 9.8 15.5895 9.8 15.7V16.6C9.8 16.7105 9.71046 16.8 9.6 16.8H8.7C8.58954 16.8 8.5 16.7105 8.5 16.6V15.7C8.5 15.5895 8.58954 15.5 8.7 15.5Z" fill="#0E7EE4"/>
<path d="M8.7 17.5H9.6C9.71046 17.5 9.8 17.5895 9.8 17.7V18.6C9.8 18.7105 9.71046 18.8 9.6 18.8H8.7C8.58954 18.8 8.5 18.7105 8.5 18.6V17.7C8.5 17.5895 8.58954 17.5 8.7 17.5Z" fill="#0E7EE4"/>
<path d="M6.7 17.5H7.6C7.71046 17.5 7.8 17.5895 7.8 17.7V18.6C7.8 18.7105 7.71046 18.8 7.6 18.8H6.7C6.58954 18.8 6.5 18.7105 6.5 18.6V17.7C6.5 17.5895 6.58954 17.5 6.7 17.5Z" fill="#0E7EE4"/>
<path d="M8.7 19.5H9.6C9.71046 19.5 9.8 19.5895 9.8 19.7V20.6C9.8 20.7105 9.71046 20.8 9.6 20.8H8.7C8.58954 20.8 8.5 20.7105 8.5 20.6V19.7C8.5 19.5895 8.58954 19.5 8.7 19.5Z" fill="#0E7EE4"/>
<path d="M6.7 19.5H7.6C7.71046 19.5 7.8 19.5895 7.8 19.7V20.6C7.8 20.7105 7.71046 20.8 7.6 20.8H6.7C6.58954 20.8 6.5 20.7105 6.5 20.6V19.7C6.5 19.5895 6.58954 19.5 6.7 19.5Z" fill="#0E7EE4"/>
</g>
<defs>
<clipPath id="clip0_2_1362">
<rect width="24" height="24" fill="white"/>
</clipPath>
</defs>
</svg>
