<svg width="20" height="20" viewBox="0 0 20 20" fill="none" xmlns="http://www.w3.org/2000/svg">
<rect x="0.5" y="0.5" width="19" height="19" rx="9.5" fill="#EDEFF9"/>
<rect x="0.5" y="0.5" width="19" height="19" rx="9.5" stroke="#0E7EE4"/>
<path d="M14.125 11.5448C14.125 13.8186 12.5314 15.25 10 15.25C7.46857 15.25 5.875 13.8186 5.875 11.5448C5.875 9.10477 8.83211 5.81074 9.73904 4.85794C9.77131 4.82409 9.81135 4.79691 9.85643 4.77828C9.9015 4.75965 9.95053 4.75 10.0001 4.75C10.0498 4.75 10.0988 4.75965 10.1439 4.77828C10.1889 4.79691 10.229 4.82409 10.2612 4.85794C11.1679 5.81074 14.125 9.10477 14.125 11.5448Z" stroke="#0E7EE4" stroke-width="1.2" stroke-miterlimit="10"/>
<path d="M12.0625 11.5C12.0625 11.9913 11.8452 12.4626 11.4584 12.81C11.0716 13.1574 10.547 13.3526 10 13.3526" stroke="#0E7EE4" stroke-width="1.2" stroke-linecap="round" stroke-linejoin="round"/>
</svg>
