<svg width="20" height="20" viewBox="0 0 20 20" fill="none" xmlns="http://www.w3.org/2000/svg">
<rect x="0.5" y="0.5" width="19" height="19" rx="9.5" fill="#EDEFF9"/>
<rect x="0.5" y="0.5" width="19" height="19" rx="9.5" stroke="#0E7EE4"/>
<g clip-path="url(#clip0_2_1897)">
<path d="M4.80949 12.9337L4.80986 12.9331C4.95721 12.6742 5.1279 12.4484 5.33469 12.2512L5.33484 12.2513L5.34389 12.2421C5.54276 12.0398 5.78432 11.849 6.02617 11.6982C6.27419 11.5527 6.53793 11.4449 6.83501 11.3624C7.13073 11.2814 7.43563 11.2407 7.74177 11.2413L7.74543 11.2413C8.65405 11.2347 9.53063 11.5886 10.1888 12.2298C10.4916 12.5386 10.7303 12.9017 10.9046 13.3219C10.9339 13.3988 10.9606 13.4773 10.9847 13.5572C11.0357 13.7264 10.9618 13.9212 10.7859 14.0237C9.86143 14.562 8.8127 14.8483 7.7419 14.85C6.55379 14.8499 5.45699 14.5011 4.52183 13.9073C4.47046 13.8747 4.45144 13.8224 4.46228 13.7731C4.54222 13.4792 4.65894 13.1971 4.80949 12.9337ZM5.8334 8.08886L5.83357 8.08879L5.82878 8.07764C5.71945 7.82302 5.66436 7.54742 5.66737 7.26913L5.6674 7.26913V7.26481C5.6674 6.97867 5.71882 6.70153 5.82703 6.45693C5.94383 6.19293 6.09681 5.96228 6.28325 5.77264C6.46889 5.58382 6.6956 5.4295 6.95475 5.31087C7.19297 5.20183 7.46279 5.15 7.74254 5.15C8.03588 5.15 8.29107 5.20135 8.53034 5.31087C8.78875 5.42916 9.01584 5.58431 9.20213 5.77294C9.38811 5.96219 9.54114 6.19357 9.65809 6.45701C9.76628 6.70159 9.81769 6.9787 9.81769 7.26481C9.81769 7.56595 9.76666 7.82797 9.65824 8.07226L9.65823 8.07226L9.65684 8.07546C9.54681 8.32936 9.39259 8.56049 9.20195 8.75779C9.00915 8.95019 8.78419 9.10539 8.53797 9.21624C8.02321 9.43 7.44696 9.43 6.9322 9.21624C6.6855 9.10518 6.46014 8.94957 6.26709 8.75665C6.07959 8.56594 5.93207 8.33936 5.8334 8.08886Z" stroke="#0E7EE4" stroke-width="0.8"/>
<path d="M11.7257 8.76522L11.7223 8.75667L11.7186 8.74823C11.6475 8.58565 11.6118 8.40988 11.6137 8.23252L11.6138 8.23252V8.22592C11.6138 8.03577 11.6487 7.85971 11.7159 7.71042C11.7964 7.53172 11.8998 7.38005 12.0223 7.25764C12.1438 7.13633 12.2959 7.03335 12.4765 6.95216C12.626 6.88494 12.8025 6.85 12.9939 6.85C13.1953 6.85 13.3602 6.88424 13.5113 6.95216C13.6908 7.03284 13.8435 7.1364 13.9659 7.25808C14.0878 7.37994 14.1912 7.53206 14.272 7.71065C14.3392 7.85989 14.374 8.03586 14.374 8.22592C14.374 8.42704 14.3397 8.59125 14.2722 8.74077L14.2722 8.74076L14.27 8.74562C14.1964 8.91237 14.0933 9.06452 13.9656 9.19473C13.837 9.32038 13.687 9.42219 13.5227 9.49539C13.1797 9.63413 12.7962 9.63413 12.4532 9.49539C12.2881 9.42186 12.1375 9.31948 12.0085 9.19306C11.8858 9.07023 11.7898 8.92504 11.7257 8.76522Z" fill="#0E7EE4" stroke="#0E7EE4" stroke-width="1.2"/>
<path d="M12.0409 14.2496L12.3844 14.4644L12.3844 14.4644L12.0409 14.2496ZM12.638 13.8864C12.6479 13.6458 12.6002 13.3902 12.5343 13.162C12.4426 12.8437 12.2914 12.4956 12.0867 12.1616C12.0296 12.0682 11.9644 11.9736 11.8988 11.8842C12.0341 11.8188 12.179 11.7657 12.34 11.7217C12.553 11.6645 12.7726 11.6357 12.9931 11.6361V11.6361L12.9985 11.6361C13.6534 11.6314 14.2842 11.8816 14.7575 12.3333C14.971 12.5478 15.1403 12.7999 15.2651 13.0941C15.2722 13.1126 15.2791 13.1313 15.2859 13.15L15.8224 12.9584L15.2859 13.15C15.3037 13.2 15.2892 13.2905 15.1896 13.3442C14.5174 13.7065 13.7634 13.8988 12.9939 13.9001C12.8739 13.9001 12.7552 13.8954 12.638 13.8864Z" fill="#0E7EE4" stroke="#0E7EE4" stroke-width="1.2" stroke-linejoin="round"/>
</g>
<defs>
<clipPath id="clip0_2_1897">
<rect width="12" height="12" fill="white" transform="translate(4 4)"/>
</clipPath>
</defs>
</svg>
