<svg width="20" height="20" viewBox="0 0 20 20" fill="none" xmlns="http://www.w3.org/2000/svg">
<rect x="0.5" y="0.5" width="19" height="19" rx="9.5" fill="#EDEFF9"/>
<rect x="0.5" y="0.5" width="19" height="19" rx="9.5" stroke="#0E7EE4"/>
<path d="M13.75 11.125C13.75 11.3321 13.5821 11.5 13.375 11.5H11.875C11.6679 11.5 11.5 11.3321 11.5 11.125V11.125C11.5 10.9179 11.6679 10.75 11.875 10.75H13.375C13.5821 10.75 13.75 10.9179 13.75 11.125V11.125Z" fill="#0E7EE4"/>
<path d="M15.25 14.125C15.25 14.3321 15.0821 14.5 14.875 14.5H13.375C13.1679 14.5 13 14.3321 13 14.125V14.125C13 13.9179 13.1679 13.75 13.375 13.75H14.875C15.0821 13.75 15.25 13.9179 15.25 14.125V14.125Z" fill="#0E7EE4"/>
<path d="M14.5 12.625C14.5 12.8321 14.3321 13 14.125 13H12.625C12.4179 13 12.25 12.8321 12.25 12.625V12.625C12.25 12.4179 12.4179 12.25 12.625 12.25H14.125C14.3321 12.25 14.5 12.4179 14.5 12.625V12.625Z" fill="#0E7EE4"/>
<path d="M10.3761 11.5C10.3735 11.1836 10.2891 10.8732 10.1312 10.599C9.9732 10.3248 9.74705 10.0961 9.47465 9.93512L12.0629 5.4493C12.1663 5.27015 12.1049 5.04113 11.9259 4.93763V4.93763C11.7466 4.83402 11.5173 4.89541 11.4138 5.07471L8.7599 9.67225C8.41118 9.59435 8.0485 9.60512 7.70503 9.70359C7.36156 9.80205 7.04825 9.98506 6.79377 10.2359C5.38977 11.59 5.49852 14.7558 5.50377 14.89C5.50765 14.9868 5.54886 15.0784 5.61877 15.1455C5.68868 15.2126 5.78186 15.2501 5.87877 15.25H11.5004C11.5791 15.25 11.6558 15.2252 11.7197 15.1792C11.7835 15.1332 11.8313 15.0683 11.8562 14.9936C11.881 14.9189 11.8818 14.8383 11.8583 14.7632C11.8349 14.6881 11.7884 14.6222 11.7254 14.575C10.3979 13.579 10.3761 11.5203 10.3761 11.5ZM8.47377 10.3739C8.77391 10.3772 9.06122 10.4961 9.27593 10.7058C9.49064 10.9156 9.61621 11.2 9.62652 11.5C9.62652 11.5142 9.62727 11.578 9.6329 11.6759L7.4204 10.6919C7.56614 10.5717 7.73432 10.4817 7.91515 10.4271C8.09599 10.3725 8.28588 10.3544 8.47377 10.3739ZM9.79377 14.5C9.57372 14.2759 9.41224 14.0033 9.32099 13.7062C9.26409 13.521 9.1046 13.375 8.91085 13.375V13.375C8.68856 13.375 8.51002 13.5645 8.56194 13.7806C8.62284 14.0342 8.72424 14.2772 8.86302 14.5H8.0294C7.91091 14.1261 7.82807 13.7421 7.78184 13.3531C7.75832 13.1552 7.5947 13 7.39544 13V13C7.18017 13 7.00753 13.1801 7.03082 13.3942C7.07151 13.7682 7.1446 14.1382 7.2494 14.5H6.25002C6.26165 13.8115 6.35877 12.2905 6.92615 11.2926L9.75102 12.5489C9.88675 13.2536 10.1761 13.9198 10.5985 14.5H9.79377Z" fill="#0E7EE4"/>
</svg>
