<svg width="16" height="16" viewBox="0 0 16 16" fill="none" xmlns="http://www.w3.org/2000/svg">
<path d="M13 9.5C13 9.77614 12.7761 10 12.5 10H10.5C10.2239 10 10 9.77614 10 9.5C10 9.22386 10.2239 9 10.5 9H12.5C12.7761 9 13 9.22386 13 9.5Z" fill="white"/>
<path d="M15 13.5C15 13.7761 14.7761 14 14.5 14H12.5C12.2239 14 12 13.7761 12 13.5C12 13.2239 12.2239 13 12.5 13H14.5C14.7761 13 15 13.2239 15 13.5Z" fill="white"/>
<path d="M14 11.5C14 11.7761 13.7761 12 13.5 12H11.5C11.2239 12 11 11.7761 11 11.5C11 11.2239 11.2239 11 11.5 11H13.5C13.7761 11 14 11.2239 14 11.5Z" fill="white"/>
<path d="M8.50146 10C8.49794 9.57811 8.38542 9.16429 8.17481 8.79871C7.9642 8.43312 7.66267 8.12819 7.29946 7.9135L10.7505 1.9324C10.8883 1.69354 10.8065 1.38818 10.5678 1.25017C10.3288 1.11203 10.023 1.19388 9.88505 1.43294L6.34646 7.563C5.88151 7.45913 5.39794 7.4735 4.93998 7.60478C4.48201 7.73606 4.06427 7.98008 3.72496 8.3145C1.85296 10.12 1.99796 14.341 2.00496 14.52C2.01013 14.6491 2.06508 14.7712 2.1583 14.8607C2.25151 14.9502 2.37575 15.0001 2.50496 15H10.0005C10.1054 15 10.2077 14.967 10.2928 14.9056C10.378 14.8443 10.4416 14.7577 10.4748 14.6581C10.508 14.5586 10.509 14.4511 10.4777 14.3509C10.4464 14.2507 10.3844 14.163 10.3005 14.1C8.53046 12.772 8.50146 10.027 8.50146 10ZM5.96496 8.4985C6.36515 8.5029 6.74823 8.66142 7.03451 8.94108C7.32079 9.22075 7.48822 9.60003 7.50196 10C7.50196 10.019 7.50296 10.104 7.51046 10.2345L4.56046 8.9225C4.75478 8.76226 4.97902 8.64226 5.22014 8.56947C5.46126 8.49668 5.71444 8.47256 5.96496 8.4985ZM7.72496 14C7.43156 13.7013 7.21626 13.3378 7.09458 12.9417C7.01872 12.6947 6.80607 12.5 6.54773 12.5C6.25135 12.5 6.01329 12.7527 6.08252 13.0409C6.16372 13.3789 6.29891 13.7029 6.48396 14H5.37246C5.21448 13.5014 5.10403 12.9894 5.04238 12.4708C5.01102 12.207 4.79286 12 4.52719 12C4.24016 12 4.00998 12.2402 4.04102 12.5255C4.09527 13.0242 4.19273 13.5176 4.33246 14H2.99996C3.01546 13.082 3.14496 11.054 3.90146 9.7235L7.66796 11.3985C7.84893 12.3382 8.23475 13.2264 8.79796 14H7.72496Z" fill="white"/>
</svg>
