<svg width="16" height="17" viewBox="0 0 16 17" fill="none" xmlns="http://www.w3.org/2000/svg">
<path fill-rule="evenodd" clip-rule="evenodd" d="M0.399994 8.49999C0.399994 4.30252 3.80252 0.899994 7.99999 0.899994C12.1975 0.899994 15.6 4.30252 15.6 8.49999C15.6 12.6975 12.1975 16.1 7.99999 16.1C3.80252 16.1 0.399994 12.6975 0.399994 8.49999ZM7.99999 2.09999C4.46526 2.09999 1.59999 4.96526 1.59999 8.49999C1.59999 12.0347 4.46526 14.9 7.99999 14.9C11.5347 14.9 14.4 12.0347 14.4 8.49999C14.4 4.96526 11.5347 2.09999 7.99999 2.09999Z" fill="#0E7EE4"/>
<path fill-rule="evenodd" clip-rule="evenodd" d="M8.00341 3.70016C8.33478 3.70016 8.60341 3.96879 8.60341 4.30016V8.25481L10.6534 10.3051C10.8877 10.5394 10.8877 10.9193 10.6534 11.1536C10.4191 11.3879 10.0392 11.3879 9.80486 11.1536L7.57912 8.92755C7.46662 8.81503 7.40341 8.66243 7.40341 8.50331V4.30016C7.40341 3.96879 7.67204 3.70016 8.00341 3.70016Z" fill="#0E7EE4"/>
</svg>
