<svg width="20" height="20" viewBox="0 0 20 20" fill="none" xmlns="http://www.w3.org/2000/svg">
<path d="M2.89062 7C2.3519 7 1.83525 6.78929 1.45431 6.41421C1.07338 6.03914 0.859375 5.53043 0.859375 5V2C0.859375 1.46957 1.07338 0.960859 1.45431 0.585786C1.83525 0.210714 2.3519 0 2.89062 0H6.95312C7.49184 0 8.0085 0.210714 8.38943 0.585786C8.77037 0.960859 8.98437 1.46957 8.98437 2V5C8.98437 5.53043 8.77037 6.03914 8.38943 6.41421C8.0085 6.78929 7.49184 7 6.95312 7H2.89062ZM2.89062 5H6.95312V2H2.89062V5ZM2.89062 20C2.3519 20 1.83525 19.7893 1.45431 19.4142C1.07338 19.0391 0.859375 18.5304 0.859375 18V10C0.859375 9.46957 1.07338 8.96086 1.45431 8.58579C1.83525 8.21071 2.3519 8 2.89062 8H6.95312C7.49184 8 8.0085 8.21071 8.38943 8.58579C8.77037 8.96086 8.98437 9.46957 8.98437 10V18C8.98437 18.5304 8.77037 19.0391 8.38943 19.4142C8.0085 19.7893 7.49184 20 6.95312 20H2.89062ZM2.89062 18H6.95312V10H2.89062V18ZM11.0156 18C11.0156 18.5304 11.2296 19.0391 11.6106 19.4142C11.9915 19.7893 12.5081 20 13.0469 20H17.1094C17.6481 20 18.1647 19.7893 18.5457 19.4142C18.9266 19.0391 19.1406 18.5304 19.1406 18V16C19.1406 15.4696 18.9266 14.9609 18.5457 14.5858C18.1647 14.2107 17.6481 14 17.1094 14H13.0469C12.5081 14 11.9915 14.2107 11.6106 14.5858C11.2296 14.9609 11.0156 15.4696 11.0156 16V18ZM17.1094 18H13.0469V16H17.1094V18ZM13.0469 12C12.5081 12 11.9915 11.7893 11.6106 11.4142C11.2296 11.0391 11.0156 10.5304 11.0156 10V2C11.0156 1.46957 11.2296 0.960859 11.6106 0.585786C11.9915 0.210714 12.5081 0 13.0469 0H17.1094C17.6481 0 18.1647 0.210714 18.5457 0.585786C18.9266 0.960859 19.1406 1.46957 19.1406 2V10C19.1406 10.5304 18.9266 11.0391 18.5457 11.4142C18.1647 11.7893 17.6481 12 17.1094 12H13.0469ZM13.0469 10H17.1094V2H13.0469V10Z" fill="#0E7EE4"/>
</svg>
