<svg width="16" height="16" viewBox="0 0 16 16" fill="none" xmlns="http://www.w3.org/2000/svg">
<path d="M8 4C6.93913 4 5.92172 4.42143 5.17157 5.17157C4.42143 5.92172 4 6.93913 4 8C4 9.06087 4.42143 10.0783 5.17157 10.8284C5.92172 11.5786 6.93913 12 8 12C9.06087 12 10.0783 11.5786 10.8284 10.8284C11.5786 10.0783 12 9.06087 12 8C12 6.93913 11.5786 5.92172 10.8284 5.17157C10.0783 4.42143 9.06087 4 8 4ZM3 8C3 5.2385 5.2385 3 8 3C10.7615 3 13 5.2385 13 8C13 10.7615 10.7615 13 8 13C5.2385 13 3 10.7615 3 8Z" fill="url(#paint0_linear_2_1278)"/>
<path d="M7.75 7C7.88261 7 8.00979 7.05268 8.10355 7.14645C8.19732 7.24021 8.25 7.36739 8.25 7.5V10.5C8.25 10.6326 8.19732 10.7598 8.10355 10.8536C8.00979 10.9473 7.88261 11 7.75 11C7.61739 11 7.49021 10.9473 7.39645 10.8536C7.30268 10.7598 7.25 10.6326 7.25 10.5V7.5C7.25 7.36739 7.30268 7.24021 7.39645 7.14645C7.49021 7.05268 7.61739 7 7.75 7ZM8.5 5.75C8.5 5.94891 8.42098 6.13968 8.28033 6.28033C8.13968 6.42098 7.94891 6.5 7.75 6.5C7.55109 6.5 7.36032 6.42098 7.21967 6.28033C7.07902 6.13968 7 5.94891 7 5.75C7 5.55109 7.07902 5.36032 7.21967 5.21967C7.36032 5.07902 7.55109 5 7.75 5C7.94891 5 8.13968 5.07902 8.28033 5.21967C8.42098 5.36032 8.5 5.55109 8.5 5.75Z" fill="url(#paint1_linear_2_1278)"/>
<defs>
<linearGradient id="paint0_linear_2_1278" x1="3" y1="8" x2="12.5132" y2="5.84809" gradientUnits="userSpaceOnUse">
<stop stop-color="#0E7EE4"/>
<stop offset="1" stop-color="#14B8B4"/>
</linearGradient>
<linearGradient id="paint1_linear_2_1278" x1="7" y1="8" x2="8.49522" y2="7.91544" gradientUnits="userSpaceOnUse">
<stop stop-color="#0E7EE4"/>
<stop offset="1" stop-color="#14B8B4"/>
</linearGradient>
</defs>
</svg>
