<svg width="24" height="25" viewBox="0 0 24 25" fill="none" xmlns="http://www.w3.org/2000/svg">
<path fill-rule="evenodd" clip-rule="evenodd" d="M13.2849 4.94216C13.2357 4.27554 12.6792 3.75 12 3.75C11.3208 3.75 10.7643 4.27554 10.7151 4.94216C10.407 5.0135 10.1014 5.10479 9.80471 5.2078C6.94078 6.20232 5.65 9.18672 5.65 11.9575V17.1694H5C4.58579 17.1694 4.25 17.5051 4.25 17.9194C4.25 18.3336 4.58579 18.6694 5 18.6694H19C19.4142 18.6694 19.75 18.3336 19.75 17.9194C19.75 17.5051 19.4142 17.1694 19 17.1694H18.35V11.9575C18.35 9.18672 17.0592 6.20232 14.1953 5.2078C13.8986 5.10479 13.593 5.0135 13.2849 4.94216ZM16.85 17.1694V11.9575C16.85 9.54499 15.7357 7.33059 13.7032 6.6248C13.2645 6.47245 12.8378 6.36214 12.4439 6.3121C12.288 6.29229 12.1398 6.28226 12 6.28226C11.8602 6.28226 11.712 6.29229 11.5561 6.3121C11.1622 6.36214 10.7355 6.47245 10.2968 6.6248C8.26428 7.33059 7.15 9.54499 7.15 11.9575V17.1694H16.85Z" fill="#0E7EE4"/>
<path d="M13.9775 19.7989C13.8321 20.7585 12.9985 21.5 12 21.5C11.0472 21.5 10.1724 20.7812 10.0226 19.799C9.99757 19.6352 10.1343 19.5 10.3 19.5H13.7C13.8657 19.5 14.0024 19.6351 13.9775 19.7989Z" fill="#0E7EE4"/>
<path fill-rule="evenodd" clip-rule="evenodd" d="M12.0001 19.5C12.031 19.7044 12.0289 19.8953 12.0001 20.0718C12 20.0716 12.0001 20.0719 12.0001 20.0718C11.9713 19.8954 11.9692 19.7041 12.0001 19.5C12.0001 19.5 12.0001 19.5 12.0001 19.5L10.3 19.5C10.1343 19.5 9.99757 19.6352 10.0226 19.799C10.064 20.0709 10.1611 20.3227 10.3 20.5446C10.4984 20.8616 10.7823 21.1177 11.1115 21.2846C11.3841 21.4229 11.6879 21.5 12 21.5C12.3208 21.5 12.6246 21.4234 12.8941 21.2877C13.2255 21.1207 13.5049 20.8641 13.7 20.5503C13.8398 20.3253 13.9363 20.0709 13.9775 19.7989C14.0024 19.6351 13.8657 19.5 13.7 19.5L12.0001 19.5Z" fill="#0E7EE4"/>
</svg>
