<svg width="20" height="20" viewBox="0 0 20 20" fill="none" xmlns="http://www.w3.org/2000/svg">
<path d="M10.0107 0.250275C10.7561 0.258275 11.4985 0.343275 12.2267 0.503275C12.3817 0.537324 12.5219 0.618177 12.6279 0.734535C12.7339 0.850893 12.8003 0.996942 12.8178 1.15227L12.9905 2.67927C13.0149 2.89456 13.0902 3.1012 13.2105 3.28258C13.3308 3.46396 13.4926 3.615 13.683 3.72356C13.8734 3.83212 14.087 3.89517 14.3066 3.90762C14.5263 3.92008 14.7458 3.8816 14.9476 3.79527L16.3705 3.18027C16.515 3.11762 16.6756 3.10072 16.8303 3.13189C16.9849 3.16306 17.1259 3.24077 17.2338 3.35427C18.2615 4.43536 19.0269 5.73188 19.4722 7.14627C19.5189 7.29491 19.5175 7.45417 19.4682 7.60198C19.4189 7.7498 19.3241 7.87885 19.197 7.97127L17.9356 8.88727C17.7582 9.01557 17.6139 9.18317 17.5145 9.37652C17.4151 9.56988 17.3633 9.78355 17.3633 10.0003C17.3633 10.217 17.4151 10.4307 17.5145 10.624C17.6139 10.8174 17.7582 10.985 17.9356 11.1133L19.198 12.0283C19.3255 12.1206 19.4206 12.2498 19.4701 12.3978C19.5196 12.5459 19.5211 12.7054 19.4742 12.8543C19.0287 14.2686 18.2634 15.5651 17.2358 16.6463C17.1282 16.7595 16.9877 16.8372 16.8334 16.8685C16.6792 16.8998 16.5189 16.8833 16.3746 16.8213L14.9456 16.2043C14.7441 16.1173 14.5246 16.0782 14.3049 16.0902C14.0852 16.1023 13.8715 16.1651 13.681 16.2735C13.4906 16.382 13.3287 16.5331 13.2086 16.7146C13.0884 16.8961 13.0134 17.1029 12.9895 17.3183L12.8178 18.8443C12.8005 18.9979 12.7354 19.1425 12.6314 19.2584C12.5274 19.3742 12.3896 19.4555 12.2369 19.4913C10.7658 19.8359 9.23314 19.8359 7.76206 19.4913C7.60931 19.4555 7.47151 19.3742 7.36752 19.2584C7.26353 19.1425 7.19843 18.9979 7.18112 18.8443L7.01049 17.3203C6.98561 17.1054 6.90989 16.8994 6.78941 16.7186C6.66893 16.5378 6.50706 16.3874 6.3168 16.2795C6.12654 16.1715 5.91321 16.109 5.69396 16.097C5.47471 16.085 5.25565 16.1238 5.0544 16.2103L3.62643 16.8263C3.48199 16.8886 3.32147 16.9052 3.16702 16.8738C3.01257 16.8425 2.87181 16.7647 2.76417 16.6513C1.73606 15.5689 0.97071 14.271 0.52573 12.8553C0.478906 12.7064 0.480348 12.5469 0.529856 12.3988C0.579364 12.2508 0.674478 12.1216 0.80198 12.0293L2.0644 11.1133C2.24198 10.9851 2.38639 10.8175 2.48594 10.6242C2.58548 10.4308 2.63735 10.2171 2.63735 10.0003C2.63735 9.78348 2.58548 9.56974 2.48594 9.37637C2.38639 9.183 2.24198 9.01544 2.0644 8.88727L0.80198 7.97327C0.674658 7.88079 0.579746 7.75156 0.530423 7.60354C0.4811 7.45552 0.479814 7.29605 0.526745 7.14727C0.972121 5.7329 1.73746 4.43638 2.76518 3.35527C2.87303 3.24177 3.01402 3.16406 3.16868 3.13289C3.32333 3.10172 3.484 3.11862 3.62846 3.18127L5.05034 3.79627C5.25247 3.88254 5.47233 3.92093 5.69226 3.90836C5.91219 3.89579 6.12606 3.8326 6.31669 3.72387C6.50732 3.61514 6.66939 3.46391 6.78989 3.28231C6.91038 3.10072 6.98594 2.89384 7.01049 2.67827L7.18315 1.15227C7.20058 0.996629 7.26705 0.850258 7.37323 0.733689C7.47942 0.617119 7.62 0.536199 7.77526 0.502275C8.50346 0.343275 9.24792 0.259275 10.0107 0.250275ZM10.0107 1.75027C9.54995 1.7556 9.09029 1.79471 8.63549 1.86727L8.52479 2.84427C8.47409 3.29384 8.31677 3.72537 8.06554 4.10406C7.8143 4.48275 7.47618 4.798 7.07845 5.02436C6.68072 5.25072 6.23452 5.38187 5.77585 5.40721C5.31717 5.43256 4.85887 5.3514 4.43792 5.17027L3.52589 4.77627C2.94494 5.47039 2.48255 6.25295 2.15682 7.09327L2.96729 7.68027C3.3372 7.94794 3.63795 8.29755 3.84524 8.70084C4.05253 9.10412 4.16054 9.54978 4.16054 10.0018C4.16054 10.4538 4.05253 10.8994 3.84524 11.3027C3.63795 11.706 3.3372 12.0556 2.96729 12.3233L2.15581 12.9113C2.48081 13.7533 2.94393 14.5373 3.52487 15.2333L4.44401 14.8363C4.86396 14.6557 5.3211 14.5748 5.77862 14.6C6.23614 14.6252 6.68126 14.7558 7.07815 14.9813C7.47505 15.2068 7.81262 15.5209 8.06371 15.8983C8.3148 16.2757 8.47238 16.7059 8.52378 17.1543L8.63549 18.1383C9.53839 18.2883 10.4616 18.2883 11.3645 18.1383L11.4762 17.1543C11.5268 16.7054 11.6838 16.2744 11.9347 15.8963C12.1855 15.5181 12.5232 15.2034 12.9203 14.9774C13.3175 14.7514 13.7631 14.6205 14.2211 14.5953C14.6791 14.5701 15.1367 14.6513 15.557 14.8323L16.4761 15.2283C17.0568 14.5337 17.5188 13.7509 17.8442 12.9103L17.0337 12.3223C16.6638 12.0546 16.363 11.705 16.1557 11.3017C15.9485 10.8984 15.8404 10.4528 15.8404 10.0008C15.8404 9.54878 15.9485 9.10312 16.1557 8.69983C16.363 8.29655 16.6638 7.94694 17.0337 7.67927L17.8421 7.09227C17.5164 6.25195 17.054 5.46939 16.4731 4.77527L15.5631 5.16827C15.1423 5.34962 14.6842 5.43102 14.2256 5.40589C13.7671 5.38076 13.321 5.24981 12.9233 5.02361C12.5256 4.79741 12.1875 4.4823 11.9363 4.10373C11.6851 3.72515 11.5278 3.29372 11.4772 2.84427L11.3655 1.86827C10.9178 1.79621 10.4653 1.7571 10.0117 1.75127L10.0107 1.75027ZM9.99846 6.25027C11.0086 6.25027 11.9773 6.64536 12.6915 7.34862C13.4058 8.05188 13.8071 9.00571 13.8071 10.0003C13.8071 10.9948 13.4058 11.9487 12.6915 12.6519C11.9773 13.3552 11.0086 13.7503 9.99846 13.7503C8.98836 13.7503 8.01963 13.3552 7.30538 12.6519C6.59113 11.9487 6.18987 10.9948 6.18987 10.0003C6.18987 9.00571 6.59113 8.05188 7.30538 7.34862C8.01963 6.64536 8.98836 6.25027 9.99846 6.25027ZM9.99846 7.75027C9.3924 7.75027 8.81116 7.98732 8.38261 8.40928C7.95406 8.83124 7.71331 9.40353 7.71331 10.0003C7.71331 10.597 7.95406 11.1693 8.38261 11.5913C8.81116 12.0132 9.3924 12.2503 9.99846 12.2503C10.6045 12.2503 11.1858 12.0132 11.6143 11.5913C12.0429 11.1693 12.2836 10.597 12.2836 10.0003C12.2836 9.40353 12.0429 8.83124 11.6143 8.40928C11.1858 7.98732 10.6045 7.75027 9.99846 7.75027Z" fill="#0E7EE4"/>
</svg>
