<svg width="24" height="24" viewBox="0 0 24 24" fill="none" xmlns="http://www.w3.org/2000/svg">
<path d="M13.4036 17.8247H21.5C22.0523 17.8247 22.5 17.377 22.5 16.8247V3.25C22.5 2.69771 22.0523 2.25 21.5 2.25H2.5C1.94771 2.25 1.5 2.69772 1.5 3.25V16.8247C1.5 17.377 1.94771 17.8247 2.5 17.8247H11.0703M13.4036 17.8247H11.0703M13.4036 17.8247V21.75M11.0703 17.8247V21.75M22.5 14.9123H1.5M8.88281 21.75H11.0703M15.4453 21.75H13.4036M11.0703 21.75H13.4036" stroke="#0E7EE4" stroke-width="1.5" stroke-linecap="round"/>
<path d="M9.525 10.7503C8.77507 10.7503 7.5 10.3752 7.5 8.87518C7.5 7.12511 9.075 6.75009 9.525 6.75009C9.75 5.87506 10.2 4.5 12 4.5C13.575 4.5 14.25 5.50004 14.475 6.37508C14.475 6.37508 16.5 6.62509 16.5 8.75017C16.5 10.2502 15.375 10.7503 14.475 10.7503H11.55" stroke="#0E7EE4" stroke-width="1.5" stroke-linecap="round" stroke-linejoin="round"/>
<path d="M12.6741 9.49988L11.5491 10.7499L12.6741 12" stroke="#0E7EE4" stroke-width="1.5" stroke-linecap="round" stroke-linejoin="round"/>
</svg>
