<svg width="12" height="13" viewBox="0 0 12 13" fill="none" xmlns="http://www.w3.org/2000/svg">
<path d="M6 6.83333C5.81111 6.83333 5.65267 6.76933 5.52467 6.64133C5.39667 6.51333 5.33289 6.3551 5.33333 6.16666V0.833326C5.33333 0.644437 5.39733 0.485992 5.52533 0.357992C5.65333 0.229992 5.81155 0.166214 6 0.166659C6.18889 0.166659 6.34733 0.230659 6.47533 0.358659C6.60333 0.486659 6.66711 0.644881 6.66667 0.833326V6.16666C6.66667 6.35555 6.60267 6.51399 6.47467 6.64199C6.34667 6.76999 6.18844 6.83377 6 6.83333ZM6 12.8333C5.16667 12.8333 4.386 12.6749 3.658 12.358C2.93 12.0411 2.29667 11.6135 1.758 11.0753C1.21933 10.5362 0.791778 9.90288 0.475333 9.17533C0.158889 8.44777 0.000444444 7.6671 0 6.83333C0 6.15555 0.111111 5.4971 0.333333 4.85799C0.555555 4.21888 0.877778 3.63288 1.3 3.09999C1.42222 2.94444 1.57778 2.86933 1.76667 2.87466C1.95556 2.87999 2.12222 2.9551 2.26667 3.09999C2.38889 3.22221 2.44444 3.37221 2.43333 3.54999C2.42222 3.72777 2.36111 3.89444 2.25 4.04999C1.95 4.44999 1.72222 4.88888 1.56667 5.36666C1.41111 5.84444 1.33333 6.33333 1.33333 6.83333C1.33333 8.13333 1.78622 9.23621 2.692 10.142C3.59778 11.0478 4.70044 11.5004 6 11.5C7.3 11.5 8.40289 11.0471 9.30867 10.1413C10.2144 9.23555 10.6671 8.13288 10.6667 6.83333C10.6667 6.32221 10.5916 5.82488 10.4413 5.34133C10.2911 4.85777 10.0551 4.41621 9.73333 4.01666C9.62222 3.87221 9.56111 3.71377 9.55 3.54133C9.53889 3.36888 9.59444 3.22177 9.71667 3.09999C9.85 2.96666 10.0111 2.8971 10.2 2.89133C10.3889 2.88555 10.5444 2.9551 10.6667 3.09999C11.1 3.63333 11.4307 4.21666 11.6587 4.84999C11.8867 5.48333 12.0004 6.14444 12 6.83333C12 7.66666 11.8416 8.44733 11.5247 9.17533C11.2078 9.90333 10.7802 10.5367 10.242 11.0753C9.70289 11.614 9.06955 12.0418 8.342 12.3587C7.61444 12.6755 6.83378 12.8338 6 12.8333Z" fill="#0E7EE4"/>
</svg>
