<svg width="20" height="20" viewBox="0 0 20 20" fill="none" xmlns="http://www.w3.org/2000/svg">
<rect x="0.5" y="0.5" width="19" height="19" rx="9.5" fill="#FBCFCD"/>
<rect x="0.5" y="0.5" width="19" height="19" rx="9.5" stroke="#EF4337"/>
<path d="M10 10.4C10.9924 10.4 11.8924 10.8038 12.5446 11.4554L11.6962 12.3038C11.2618 11.8694 10.6618 11.6 10 11.6C9.33822 11.6 8.73822 11.8694 8.30382 12.3038L7.45542 11.4554C7.78916 11.1206 8.18575 10.855 8.62243 10.6739C9.05911 10.4927 9.52727 10.3997 10 10.4ZM5.75742 9.75741C6.89082 8.62401 8.39742 8.00001 10 8.00001C11.6026 8.00001 13.1092 8.62401 14.2426 9.75741L13.3942 10.6058C12.4876 9.69921 11.2822 9.20001 10 9.20001C8.71782 9.20001 7.51242 9.69921 6.60582 10.6058L5.75742 9.75741ZM13.27 6.26061C14.268 6.68236 15.1748 7.29365 15.94 8.06061L15.0916 8.90901C13.7314 7.54941 11.9236 6.80001 10.0006 6.80001C8.07762 6.80001 6.26922 7.54881 4.90962 8.90901L4.06122 8.06061C4.84035 7.27931 5.76623 6.65972 6.78563 6.23744C7.80502 5.81517 8.89782 5.59854 10.0012 5.60001C11.1352 5.60001 12.235 5.82201 13.2712 6.26061H13.27ZM9.40002 13.4C9.40002 13.2409 9.46323 13.0883 9.57575 12.9758C9.68828 12.8632 9.84089 12.8 10 12.8C10.1591 12.8 10.3118 12.8632 10.4243 12.9758C10.5368 13.0883 10.6 13.2409 10.6 13.4C10.6 13.5591 10.5368 13.7118 10.4243 13.8243C10.3118 13.9368 10.1591 14 10 14C9.84089 14 9.68828 13.9368 9.57575 13.8243C9.46323 13.7118 9.40002 13.5591 9.40002 13.4Z" fill="black"/>
<line x1="17.4246" y1="3.28248" x2="3.28246" y2="17.4246" stroke="#EF4337"/>
</svg>

